# xmcd
#
# Track frame offsets:
#	150
#	12260
#	23652
#	36916
#	49646
#	61107
#	73656
#	85503
#	97378
#	109103
#	121784
#	132746
#	145433
#	155735
#	168572
#	178863
#	191094
#	202741
#
# Disc length: 2854 seconds
#
# Revision: 1
# Processed by: cddbd v1.5.2PL0 Copyright (c) Steve Scherf et al.
# Submitted via: CDex 1.70beta2
#
DISCID=000b2412
DTITLE=Ray Charles - Very Best of the Early Years, (The)
DYEAR=2006
DGENRE=Blues
TTITLE0=I Love You, I Love You
TTITLE1=Confession Blues
TTITLE2=Alone in the City
TTITLE3=Can Anyone Ask for More?
TTITLE4=Let's Have A Ball
TTITLE5=Rockin' Chair Blues
TTITLE6=If I Give You My Love
TTITLE7=Can't You See Darling?
TTITLE8=How Long Blues
TTITLE9=Blues Before Sunrise
TTITLE10=A Sentimental Blues
TTITLE11=You Always Miss the Water
TTITLE12=Ain't That Fine
TTITLE13=Don't Put All Your Dreams in A Basket
TTITLE14=Sitting on the Top of the World
TTITLE15=I've Had My Fun
TTITLE16=C. C. Rider
TTITLE17=What Have I Done?
EXTD=YEAR: 2006
EXTT0=
EXTT1=
EXTT2=
EXTT3=
EXTT4=
EXTT5=
EXTT6=
EXTT7=
EXTT8=
EXTT9=
EXTT10=
EXTT11=
EXTT12=
EXTT13=
EXTT14=
EXTT15=
EXTT16=
EXTT17=
PLAYORDER=
